<svg viewBox="0 0 24 24" xmlns="http://www.w3.org/2000/svg"><g fill-rule="evenodd"><path d="M4 2.75c-.7 0-1.25.55-1.25 1.25v16c0 .69.55 1.25 1.25 1.25h8c.41 0 .75.33.75.75 0 .41-.34.75-.75.75H4c-1.52 0-2.75-1.24-2.75-2.75V4c0-1.52 1.23-2.75 2.75-2.75h1.5c.41 0 .75.33.75.75 0 .41-.34.75-.75.75H4ZM8.75 2c0-.42.33-.75.75-.75H20c1.51 0 2.75 1.23 2.75 2.75v16c0 1.51-1.24 2.75-2.75 2.75h-4c-.42 0-.75-.34-.75-.75 0-.42.33-.75.75-.75h4c.69 0 1.25-.56 1.25-1.25V4c0-.7-.56-1.25-1.25-1.25H9.5c-.42 0-.75-.34-.75-.75Z"/><path d="M11.25 8c0-2.35 1.9-4.25 4.25-4.25H19c.41 0 .75.33.75.75V8c0 .41-.34.75-.75.75h-1.5c-.42 0-.75.33-.75.75v.75H19c.23 0 .45.11.59.29 .14.18.18.43.12.65l-1 3.5c-.1.32-.39.54-.73.54h-1.25v6.75c0 .41-.34.75-.75.75 -.42 0-.75-.34-.75-.75v-7.5c0-.42.33-.75.75-.75h1.43l.57-2h-2.01c-.42 0-.75-.34-.75-.75v-1.5c0-1.25 1-2.25 2.25-2.25h.75v-2h-2.75c-1.52 0-2.75 1.23-2.75 2.75v3c0 .41-.34.75-.75.75h-1.75v2h1.75c.41 0 .75.33.75.75v7.5c0 .41-.34.75-.75.75 -.42 0-.75-.34-.75-.75v-6.75H9.47c-.42 0-.75-.34-.75-.75v-3.5c0-.42.33-.75.75-.75h1.75V7.98Z"/></g></svg>