<svg viewBox="0 0 24 24" xmlns="http://www.w3.org/2000/svg"><g fill-rule="evenodd"><path d="M1.5 6.5c0-2.77 2.23-5 5-5h11c2.76 0 5 2.23 5 5v11c0 2.76-2.24 5-5 5h-11c-2.77 0-5-2.24-5-5v-11Zm5-4c-2.21 0-4 1.79-4 4v11c0 2.2 1.79 4 4 4h11c2.2 0 4-1.8 4-4v-11c0-2.21-1.8-4-4-4h-11Z"/><path d="M12 7.5c-2.49 0-4.5 2.01-4.5 4.5 0 2.48 2.01 4.5 4.5 4.5 2.48 0 4.5-2.02 4.5-4.5 0-2.49-2.02-4.5-4.5-4.5ZM6.5 12c0-3.04 2.46-5.5 5.5-5.5 3.03 0 5.5 2.46 5.5 5.5 0 3.03-2.47 5.5-5.5 5.5 -3.04 0-5.5-2.47-5.5-5.5Z"/><path d="M18 5.5c-.28 0-.5.22-.5.5 0 .27.22.5.5.5 .27 0 .5-.23.5-.5 0-.28-.23-.5-.5-.5Zm-1.5.5c0-.83.67-1.5 1.5-1.5 .82 0 1.5.67 1.5 1.5 0 .82-.68 1.5-1.5 1.5 -.83 0-1.5-.68-1.5-1.5Z"/></g></svg>