<svg viewBox="0 0 24 24" xmlns="http://www.w3.org/2000/svg"><g fill-rule="evenodd"><path d="M5.25 19.85c.17 1.23 1.23 2.14 2.47 2.14h8.53c1.24 0 2.29-.92 2.47-2.15l1.75-12.29c.02-.15-.03-.29-.12-.4 -.1-.11-.24-.18-.38-.18h-16c-.15 0-.29.06-.38.17 -.1.1-.14.25-.12.39l1.75 12.28Zm2.47 1.14c-.75 0-1.38-.55-1.49-1.29L4.55 7.98h14.847l-1.68 11.71c-.11.73-.74 1.28-1.49 1.28H7.68Z"/><path d="M7.5 6.5C7.5 4.01 9.51 2 12 2c2.48 0 4.5 2.01 4.5 4.5v1c0 .27-.23.5-.5.5H8c-.28 0-.5-.23-.5-.5v-1ZM12 3c-1.94 0-3.5 1.56-3.5 3.5V7h7v-.5C15.5 4.56 13.93 3 12 3Z"/><path d="M8 11.5c0 2.2 1.79 4 4 4 2.2 0 4-1.8 4-4V11h-1v.5c0 1.65-1.35 3-3 3 -1.66 0-3-1.35-3-3V11H8v.5Z"/></g></svg>