<svg viewBox="0 0 24 24" xmlns="http://www.w3.org/2000/svg"><g fill-rule="evenodd"><path d="M21.48 3.42c.21.18.3.46.24.73l-1.75 7.74c-.1.4-.5.65-.9.56 -.41-.1-.66-.5-.57-.9l1.43-6.36 -14.86 6.02 2.54.5c.27.05.49.25.57.52l1.5 5.259 1.62-2.92c.1-.2.29-.34.51-.38 .21-.05.44.01.61.15l4.56 3.73 .6-2.7c.09-.41.49-.66.89-.57 .4.09.65.49.56.89l-.875 3.87c-.06.25-.25.45-.49.54 -.25.08-.52.03-.72-.13l-4.81-3.94 -2.07 3.71c-.15.26-.44.41-.75.38 -.31-.04-.56-.25-.64-.54l-1.88-6.57 -4.56-.92c-.33-.07-.57-.34-.6-.67 -.04-.33.15-.65.46-.77l18.5-7.51c.25-.11.55-.06.76.12Z"/><path d="M21.63 3.6c.22.35.11.81-.24 1.03l-13.5 8.5c-.36.22-.82.11-1.04-.24 -.23-.36-.12-.82.23-1.04l13.5-8.5c.35-.23.81-.12 1.03.23Z"/><path d="M21.47 3.41c.32.26.36.73.1 1.05l-9 11c-.27.32-.74.36-1.06.1 -.33-.27-.37-.74-.11-1.06l9-11c.26-.33.73-.37 1.05-.11Z"/></g></svg>