<svg viewBox="0 0 24 24" xmlns="http://www.w3.org/2000/svg"><g fill-rule="evenodd"><path d="M12 3.75c-4.56 0-8.25 3.69-8.25 8.25 0 1.62.46 3.13 1.27 4.41 .12.19.14.42.07.63l-.93 2.76 2.76-.93c.21-.08.44-.05.63.07 1.27.8 2.78 1.27 4.41 1.27 4.55 0 8.25-3.7 8.25-8.25 0-2.86-1.46-5.38-3.67-6.87 -.35-.24-.44-.7-.21-1.05 .23-.35.69-.44 1.04-.21 2.61 1.74 4.33 4.72 4.33 8.1 0 5.38-4.37 9.75-9.75 9.75 -1.79 0-3.47-.49-4.91-1.33l-3.86 1.28c-.27.08-.57.01-.77-.19 -.21-.21-.28-.5-.19-.77l1.28-3.86c-.85-1.45-1.33-3.12-1.33-4.91 0-5.39 4.36-9.75 9.74-9.75 .41 0 .75.33.75.75 0 .41-.34.75-.75.75Z"/><path d="M8.25 7.17c.68-.69 1.79-.69 2.47 0l1.25 1.25c.29.29.29.76 0 1.06l-.98.97c-.04.03-.06.08-.07.11 -.01.03-.01.05.01.07 .55 1 1.38 1.82 2.38 2.38 .01.01.04.01.07.01 .03-.01.08-.03.11-.07l.97-.98c.14-.15.33-.22.53-.22 .19 0 .38.07.53.21l1.25 1.25c.68.68.68 1.79 0 2.47l-1.38 1.37c-.58.57-1.42.77-2.19.51l.23-.72 -.24.71 -.22-.08c-3.13-1.05-5.58-3.5-6.62-6.62l-.08-.22 .7-.24 -.71.23C6 9.85 6.2 9 6.77 8.43l1.37-1.38Zm1.41 1.06c-.1-.1-.26-.1-.36 0L7.92 9.6c-.18.17-.24.42-.16.65l.07.21c.89 2.67 2.99 4.77 5.66 5.66l-.24.71 .23-.72 .21.07c.22.07.48.01.65-.16l1.37-1.38c.09-.1.09-.26 0-.36l-.73-.73 -.45.44c-.5.49-1.3.68-1.99.3 -1.25-.7-2.27-1.721-2.97-2.97 -.39-.69-.2-1.5.3-1.99l.44-.45 -.73-.73Z"/></g></svg>